<svg width="128" height="128" viewBox="0 0 128 128" fill="none" xmlns="http://www.w3.org/2000/svg">
<path d="M98.8985 79.8495C97.6485 77.5795 99.2385 75.2695 101.958 72.4095C106.268 67.8695 110.958 57.3395 106.598 46.6495C106.628 46.5895 105.738 44.7895 105.768 44.7295L103.978 44.6395C103.408 44.5595 83.7185 44.5195 64.0085 44.5195C44.2985 44.5195 24.6185 44.5595 24.0385 44.6395C24.0385 44.6395 21.3885 46.5895 21.4085 46.6495C17.0585 57.3395 21.7385 67.8695 26.0485 72.4095C28.7585 75.2695 30.3485 77.5795 29.1085 79.8495C27.8985 82.0595 24.2985 82.3795 24.2985 82.3795C24.2985 82.3795 25.1285 84.6395 27.1285 85.8595C28.9785 86.9895 31.2585 87.2495 32.8285 87.2895C32.8285 87.2895 38.9785 95.7995 55.0585 95.7995H72.9585C89.0385 95.7995 95.1885 87.2895 95.1885 87.2895C96.7585 87.2495 99.0385 86.9895 100.888 85.8595C102.888 84.6395 103.718 82.3795 103.718 82.3795C103.718 82.3795 100.108 82.0595 98.8985 79.8495Z" fill="#FFE13B"/>
<path d="M63.9883 95.7898V86.3498L92.5583 84.0898L95.1583 87.2898C95.1583 87.2898 89.0083 95.7999 72.9283 95.7999L63.9883 95.7898Z" fill="url(#paint0_radial_210_110)"/>
<path d="M95.1011 83.1605C90.8211 76.6605 100.311 74.2305 100.311 74.2305L100.321 74.2405C98.6711 76.2905 97.9211 78.0805 98.8911 79.8505C100.101 82.0605 103.701 82.3805 103.701 82.3805C103.701 82.3805 98.7911 86.7405 95.1011 83.1605Z" fill="url(#paint1_radial_210_110)"/>
<path d="M106.622 46.6508C110.872 57.0008 106.402 67.6608 102.212 72.1608C101.632 72.7808 99.2017 75.1708 98.6417 77.0808C98.6417 77.0808 89.1017 63.7708 86.2517 55.9508C85.6717 54.3708 85.1517 52.7508 85.0817 51.0708C85.0317 49.8108 85.2217 48.3108 85.9517 47.2508C86.8417 45.9408 106.112 45.5508 106.112 45.5508L106.622 46.6508Z" fill="url(#paint2_radial_210_110)"/>
<path d="M21.3986 46.6491C17.1586 56.9991 21.6286 67.6591 25.8086 72.1491C26.3886 72.7691 28.8186 75.1591 29.3786 77.0691C29.3786 77.0691 38.9186 63.7591 41.7686 55.9391C42.3486 54.3591 42.8686 52.7391 42.9386 51.0591C42.9886 49.7991 42.7986 48.2991 42.0686 47.2391C41.1786 45.9291 40.1386 46.2791 38.6286 46.2791C35.7486 46.2791 23.1386 45.5391 22.1586 45.5391C22.1686 45.5491 21.3986 46.6491 21.3986 46.6491Z" fill="url(#paint3_radial_210_110)"/>
<path d="M64.0294 95.7898V86.3498L35.4594 84.0898L32.8594 87.2898C32.8594 87.2898 39.0094 95.7999 55.0894 95.7999L64.0294 95.7898Z" fill="url(#paint4_radial_210_110)"/>
<path d="M32.9281 83.1605C37.2081 76.6605 27.7181 74.2305 27.7181 74.2305L27.7081 74.2405C29.3581 76.2905 30.1081 78.0805 29.1381 79.8505C27.9281 82.0605 24.3281 82.3805 24.3281 82.3805C24.3281 82.3805 29.2281 86.7405 32.9281 83.1605Z" fill="url(#paint5_radial_210_110)"/>
<path d="M64.1311 94.6797H64.0011C38.5111 94.7097 12.8711 102.18 12.8711 119.96V123.99H115.141V119.96C115.131 103.2 89.7311 94.6797 64.1311 94.6797Z" fill="url(#paint6_linear_210_110)"/>
<path d="M64.0019 90.0801H54.9219V100.06C54.9219 104.57 58.6219 108.23 63.1819 108.23H64.8319C69.3919 108.23 73.0919 104.57 73.0919 100.06V90.0801H64.0019Z" fill="#EDC391"/>
<path d="M91.3309 50.4297H36.6709C30.7809 50.4297 25.9609 55.5697 25.9609 61.8397C25.9609 68.1097 30.7809 73.2497 36.6709 73.2497H91.3209C97.2109 73.2497 102.031 68.1097 102.031 61.8397C102.031 55.5697 97.2209 50.4297 91.3309 50.4297Z" fill="#EDC391"/>
<path d="M64.0005 11.0703C46.6005 11.0703 30.4805 29.6803 30.4805 56.4603C30.4805 83.1003 47.0905 96.2703 64.0005 96.2703C80.9105 96.2703 97.5205 83.1003 97.5205 56.4603C97.5205 29.6803 81.4005 11.0703 64.0005 11.0703Z" fill="#F9DDBD"/>
<path d="M54.7998 49.8205C53.8698 48.5905 51.7298 46.8105 47.5698 46.8105C43.4098 46.8105 41.2598 48.6005 40.3398 49.8205C39.9298 50.3605 40.0298 50.9905 40.3198 51.3705C40.5798 51.7205 41.3598 52.0505 42.2198 51.7605C43.0798 51.4705 44.7598 50.6005 47.5698 50.5805C50.3798 50.6005 52.0598 51.4705 52.9198 51.7605C53.7798 52.0505 54.5598 51.7305 54.8198 51.3705C55.0998 50.9905 55.2098 50.3605 54.7998 49.8205Z" fill="#454140"/>
<path d="M87.6708 49.8205C86.7408 48.5905 84.6009 46.8105 80.4409 46.8105C76.2809 46.8105 74.1308 48.6005 73.2108 49.8205C72.8008 50.3605 72.9009 50.9905 73.1909 51.3705C73.4509 51.7205 74.2308 52.0505 75.0908 51.7605C75.9508 51.4705 77.6309 50.6005 80.4409 50.5805C83.2509 50.6005 84.9309 51.4705 85.7908 51.7605C86.6508 52.0505 87.4309 51.7305 87.6909 51.3705C87.9709 50.9905 88.0808 50.3605 87.6708 49.8205Z" fill="#454140"/>
<path d="M80.4417 63.9109C83.1645 63.9109 85.3717 61.6276 85.3717 58.8109C85.3717 55.9943 83.1645 53.7109 80.4417 53.7109C77.719 53.7109 75.5117 55.9943 75.5117 58.8109C75.5117 61.6276 77.719 63.9109 80.4417 63.9109Z" fill="#312D2D"/>
<path d="M47.5628 63.9109C50.2856 63.9109 52.4928 61.6276 52.4928 58.8109C52.4928 55.9943 50.2856 53.7109 47.5628 53.7109C44.84 53.7109 42.6328 55.9943 42.6328 58.8109C42.6328 61.6276 44.84 63.9109 47.5628 63.9109Z" fill="#312D2D"/>
<path d="M67.8603 68.0605C67.7503 68.0205 67.6503 67.9905 67.5403 67.9805H60.4703C60.3603 67.9905 60.2503 68.0205 60.1503 68.0605C59.5103 68.3205 59.1603 68.9805 59.4603 69.6905C59.7603 70.4005 61.1703 72.3805 64.0103 72.3805C66.8503 72.3805 68.2603 70.3905 68.5603 69.6905C68.8503 68.9805 68.5003 68.3205 67.8603 68.0605Z" fill="#DBA689"/>
<path d="M72.4199 76.1411C69.2299 78.0311 58.7899 78.0311 55.6099 76.1411C53.7799 75.0511 51.9099 76.7211 52.6699 78.3811C53.4199 80.0111 59.1199 83.8011 64.0399 83.8011C68.9599 83.8011 74.5899 80.0111 75.3399 78.3811C76.0899 76.7211 74.2499 75.0511 72.4199 76.1411Z" fill="#444444"/>
<path d="M104.07 25.1095C101.63 21.4095 96.1601 16.4695 91.2501 16.1395C90.4601 11.4195 85.4101 7.41953 80.5201 5.86953C67.2901 1.67953 58.6801 6.37953 54.0601 8.90953C53.1001 9.43953 46.8901 12.8795 42.5501 10.4095C39.8301 8.85953 39.8801 4.66953 39.8801 4.66953C39.8801 4.66953 31.3501 7.91953 34.2701 16.9595C31.3401 17.0795 27.5001 18.3195 25.4701 22.4295C23.0501 27.3295 23.9101 31.4195 24.6101 33.3795C22.0901 35.5195 18.9201 40.0695 21.0901 45.9795C22.7301 50.4295 29.2601 52.4795 29.2601 52.4795C28.8001 60.4895 30.2901 65.4195 31.0801 67.4195C31.2201 67.7695 31.7101 67.7395 31.8001 67.3795C32.7901 63.4195 36.1701 49.5795 35.8301 47.1695C35.8301 47.1695 47.1801 44.9195 58.0001 36.9495C60.2001 35.3295 62.5901 33.9495 65.1301 32.9295C78.7201 27.5195 81.5701 36.7495 81.5701 36.7495C81.5701 36.7495 90.9901 34.9395 93.8301 48.0195C94.9001 52.9195 95.6301 60.7695 96.2301 66.2595C96.2701 66.6495 96.8001 66.7295 96.9601 66.3695C97.9101 64.1895 99.8101 59.8695 100.26 55.4595C100.42 53.9095 104.6 51.8595 106.4 45.1995C108.79 36.3195 105.84 27.7795 104.07 25.1095Z" fill="#FFE13B"/>
<path d="M100.218 55.4997C100.378 53.9497 104.558 51.8997 106.358 45.2397C106.548 44.5297 106.708 43.8097 106.858 43.0897C108.318 34.9997 105.698 27.5697 104.068 25.1097C101.808 21.6897 96.9678 17.2197 92.3678 16.2997C91.9678 16.2497 91.5778 16.1997 91.2078 16.1797C91.2078 16.1797 91.5378 18.3297 90.6678 20.0397C89.5478 22.2597 87.2578 22.7897 87.2578 22.7897C99.2378 34.7697 98.3778 44.7897 100.218 55.4997Z" fill="url(#paint7_radial_210_110)"/>
<path d="M56.9476 7.38969C55.8576 7.91969 54.8876 8.44969 54.0576 8.89969C53.0976 9.42969 46.8876 12.8697 42.5476 10.3997C39.8776 8.87969 39.8776 4.81969 39.8776 4.67969C38.6476 6.24969 34.9276 17.4597 45.8076 18.2097C50.4976 18.5297 53.3876 14.4397 55.1076 10.9797C55.7176 9.70969 56.6876 7.87969 56.9476 7.38969Z" fill="url(#paint8_radial_210_110)"/>
<path d="M79.1594 5.46884C86.4794 7.44884 90.0494 11.1788 91.2394 16.1488C91.5894 17.6088 92.0094 31.2288 66.0094 15.7488C56.3394 9.98884 58.9794 6.38884 60.1094 5.97884C64.5294 4.37884 70.9594 3.24884 79.1594 5.46884Z" fill="url(#paint9_radial_210_110)"/>
<path d="M39.8393 4.68016C39.8293 4.69016 39.8093 4.69016 39.7793 4.70016H39.7693C38.8393 5.09016 31.5293 8.48016 34.2593 16.9602L42.0393 18.2102C35.1493 11.2302 39.8693 4.66016 39.8693 4.66016C39.8693 4.66016 39.8493 4.67016 39.8393 4.68016Z" fill="url(#paint10_radial_210_110)"/>
<path d="M39.0681 17.729L34.2581 16.959C34.0681 16.959 33.4281 17.019 33.0781 17.069C30.3681 17.449 27.1781 18.849 25.4481 22.429C23.5881 26.289 23.6381 29.599 24.1481 31.809C24.2981 32.549 24.5981 33.389 24.5981 33.389C24.5981 33.389 26.9781 31.129 32.6481 30.979L39.0681 17.729Z" fill="url(#paint11_radial_210_110)"/>
<path d="M24.3692 33.5788C21.9992 35.6788 18.8092 40.3687 21.1592 46.1887C22.9392 50.5787 29.2492 52.4788 29.2492 52.4788C29.2492 52.4988 30.5092 52.8687 31.1592 52.8687L32.6392 30.9688C29.6092 30.9688 26.6992 31.8787 24.8192 33.1887C24.8492 33.2287 24.3592 33.5488 24.3692 33.5788Z" fill="url(#paint12_radial_210_110)"/>
<defs>
<radialGradient id="paint0_radial_210_110" cx="0" cy="0" r="1" gradientUnits="userSpaceOnUse" gradientTransform="translate(78.5813 82.1498) scale(23.419 11.5034)">
<stop offset="0.699" stop-color="#FFEE58" stop-opacity="0"/>
<stop offset="1" stop-color="#FFEE58"/>
</radialGradient>
<radialGradient id="paint1_radial_210_110" cx="0" cy="0" r="1" gradientUnits="userSpaceOnUse" gradientTransform="translate(101.652 78.6651) rotate(154.924) scale(6.92065 5.13414)">
<stop offset="0.418" stop-color="#FFEE58"/>
<stop offset="1" stop-color="#FFEE58" stop-opacity="0"/>
</radialGradient>
<radialGradient id="paint2_radial_210_110" cx="0" cy="0" r="1" gradientUnits="userSpaceOnUse" gradientTransform="translate(85.8598 64.2037) rotate(-94.2783) scale(30.3986 25.3353)">
<stop offset="0.699" stop-color="#FFEE58" stop-opacity="0"/>
<stop offset="1" stop-color="#FFEE58"/>
</radialGradient>
<radialGradient id="paint3_radial_210_110" cx="0" cy="0" r="1" gradientUnits="userSpaceOnUse" gradientTransform="translate(42.3806 62.2785) rotate(-85.7217) scale(30.3986 25.3353)">
<stop offset="0.699" stop-color="#FFEE58" stop-opacity="0"/>
<stop offset="1" stop-color="#FFEE58"/>
</radialGradient>
<radialGradient id="paint4_radial_210_110" cx="0" cy="0" r="1" gradientUnits="userSpaceOnUse" gradientTransform="translate(49.4384 82.1498) rotate(180) scale(23.419 11.5034)">
<stop offset="0.699" stop-color="#FFEE58" stop-opacity="0"/>
<stop offset="1" stop-color="#FFEE58"/>
</radialGradient>
<radialGradient id="paint5_radial_210_110" cx="0" cy="0" r="1" gradientUnits="userSpaceOnUse" gradientTransform="translate(26.9431 78.9929) rotate(25.0761) scale(6.92065 5.13414)">
<stop offset="0.418" stop-color="#FFEE58"/>
<stop offset="1" stop-color="#FFEE58" stop-opacity="0"/>
</radialGradient>
<linearGradient id="paint6_linear_210_110" x1="64.0011" y1="94.5177" x2="64.0011" y2="122.706" gradientUnits="userSpaceOnUse">
<stop stop-color="#F78C1F"/>
<stop offset="0.494" stop-color="#F37F20"/>
<stop offset="1" stop-color="#ED6D23"/>
</linearGradient>
<radialGradient id="paint7_radial_210_110" cx="0" cy="0" r="1" gradientUnits="userSpaceOnUse" gradientTransform="translate(82.0147 43.0517) rotate(72.0851) scale(35.6325 26.4384)">
<stop offset="0.699" stop-color="#FFEE58" stop-opacity="0"/>
<stop offset="1" stop-color="#FFEE58"/>
</radialGradient>
<radialGradient id="paint8_radial_210_110" cx="0" cy="0" r="1" gradientUnits="userSpaceOnUse" gradientTransform="translate(47.2782 4.20122) rotate(28.2026) scale(9.34319 11.0783)">
<stop offset="0.58" stop-color="#FFEE58"/>
<stop offset="1" stop-color="#FFEE58" stop-opacity="0"/>
</radialGradient>
<radialGradient id="paint9_radial_210_110" cx="0" cy="0" r="1" gradientUnits="userSpaceOnUse" gradientTransform="translate(68.1608 21.1681) rotate(-157.19) scale(29.2196 16.4215)">
<stop offset="0.699" stop-color="#FFEE58" stop-opacity="0"/>
<stop offset="1" stop-color="#FFEE58"/>
</radialGradient>
<radialGradient id="paint10_radial_210_110" cx="0" cy="0" r="1" gradientUnits="userSpaceOnUse" gradientTransform="translate(43.5283 12.7254) scale(8.575 10.4898)">
<stop offset="0.702" stop-color="#FFEE58" stop-opacity="0"/>
<stop offset="1" stop-color="#FFEE58"/>
</radialGradient>
<radialGradient id="paint11_radial_210_110" cx="0" cy="0" r="1" gradientUnits="userSpaceOnUse" gradientTransform="translate(42.3465 27.8607) rotate(-164.942) scale(16.0836 15.0513)">
<stop offset="0.699" stop-color="#FFEE58" stop-opacity="0"/>
<stop offset="1" stop-color="#FFEE58"/>
</radialGradient>
<radialGradient id="paint12_radial_210_110" cx="0" cy="0" r="1" gradientUnits="userSpaceOnUse" gradientTransform="translate(38.5344 43.3894) rotate(7.83355) scale(16.8865 23.7284)">
<stop offset="0.699" stop-color="#FFEE58" stop-opacity="0"/>
<stop offset="1" stop-color="#FFEE58"/>
</radialGradient>
</defs>
</svg>
