<svg width="45" height="59" viewBox="0 0 45 59" fill="none" xmlns="http://www.w3.org/2000/svg">
<g clip-path="url(#clip0_305_31)">
<path d="M22.0925 40.8574C4.23073 40.8574 0.0136719 48.3723 0.0136719 51.8462C0.0136719 55.3201 2.21052 58.2913 4.92008 58.2913H39.265C41.9745 58.2913 44.1714 55.3088 44.1714 51.8462C44.1714 48.3836 39.9543 40.8574 22.0925 40.8574Z" fill="#78B159"/>
<path d="M35.3457 45.641C35.3457 48.1079 33.8223 48.9925 31.9443 48.9925C30.0664 48.9925 28.543 48.1095 28.543 45.641L29.393 35.5884C29.393 33.1216 30.0652 33.3536 31.9443 33.3536C33.8223 33.3536 34.4957 33.1199 34.4957 35.5884L35.3457 45.641Z" fill="#662113"/>
<path d="M42.7832 32.0544C37.1531 25.3918 34.8728 15.8516 31.9437 15.8516C29.0146 15.8516 26.7343 25.3918 21.1054 32.0544C18.7393 34.8548 19.8666 36.4741 23.1097 36.1502C26.0008 35.8618 28.7042 34.9563 31.9437 34.9563C35.1831 34.9563 37.8878 35.8634 40.7777 36.1502C44.0208 36.4741 45.1481 34.8532 42.7832 32.0544Z" fill="#5C913B"/>
<path d="M40.9533 29.412C36.627 23.9321 34.1959 16.082 31.9426 16.082C29.6906 16.082 27.2595 23.9321 22.9332 29.412C19.4951 33.7672 27.4386 34.7437 31.9426 29.412C36.4455 34.7437 44.3902 33.7672 40.9533 29.412Z" fill="#3E721D"/>
<path d="M40.9533 24.9749C36.627 19.8543 34.1959 12.5215 31.9426 12.5215C29.6906 12.5215 27.2595 19.8543 22.9332 24.9749C19.4951 29.0434 27.4386 29.9553 31.9426 24.9749C36.4455 29.9553 44.3902 29.0417 40.9533 24.9749Z" fill="#5C913B"/>
<path d="M38.9783 21.3376C35.6015 17.34 33.7027 11.6152 31.9438 11.6152C30.1861 11.6152 28.2873 17.34 24.9092 21.3376C22.2254 24.5134 28.4259 25.2272 31.9438 21.3376C35.4604 25.2255 41.6622 24.5134 38.9783 21.3376Z" fill="#3E721D"/>
<path d="M38.9783 18.0114C35.6015 14.0139 33.7027 8.28906 31.9438 8.28906C30.1861 8.28906 28.2873 14.0139 24.9092 18.0114C22.2254 21.1872 28.4259 21.901 31.9438 18.0114C35.4604 21.901 41.6622 21.1888 38.9783 18.0114Z" fill="#5C913B"/>
<path d="M37.6206 15.0562C34.8951 11.8304 33.3631 7.21094 31.9439 7.21094C30.5247 7.21094 28.9927 11.8304 26.2672 15.0562C24.101 17.6197 29.1056 18.1949 31.9439 15.0562C34.7823 18.1949 39.788 17.6197 37.6206 15.0562Z" fill="#3E721D"/>
<path d="M37.6206 12.5523C34.8951 9.32652 33.3631 4.70703 31.9439 4.70703C30.5247 4.70703 28.9927 9.32652 26.2672 12.5523C24.101 15.1158 29.1056 15.691 31.9439 12.5523C34.7823 15.691 39.788 15.1158 37.6206 12.5523Z" fill="#5C913B"/>
<path d="M36.2634 8.86621C34.1905 6.41226 33.024 2.89648 31.9433 2.89648C30.8639 2.89648 29.6974 6.41226 27.6232 8.86621C25.9747 10.8174 29.7833 11.2541 31.9433 8.86621C34.1034 11.2557 37.912 10.8174 36.2634 8.86621Z" fill="#3E721D"/>
<path d="M36.2634 7.19824C34.1905 4.74429 33.024 1.22852 31.9433 1.22852C30.8639 1.22852 29.6974 4.74429 27.6232 7.19824C25.9747 9.14948 29.7833 9.58613 31.9433 7.19824C34.1034 9.58613 37.912 9.14948 36.2634 7.19824Z" fill="#5C913B"/>
<path d="M18.5355 53.4563C18.0154 53.4563 17.5517 53.0261 17.3775 52.3832L11.2298 29.7724C11.1635 29.5336 11.1428 29.2772 11.1695 29.0255C11.1963 28.7737 11.2696 28.5345 11.3831 28.3287C11.4985 28.1217 11.6501 27.9543 11.8252 27.8407C12.0003 27.7271 12.1937 27.6707 12.389 27.6761H26.8126C27.3044 27.6761 27.7497 28.0306 27.9435 28.6252L35.3203 51.2199C35.4008 51.4649 35.4335 51.7324 35.4153 51.9981C35.3971 52.2639 35.3287 52.5195 35.2162 52.7417C35.1037 52.9639 34.9508 53.1456 34.7712 53.2704C34.5917 53.3952 34.3913 53.4591 34.1881 53.4563H18.5355Z" fill="#F4900C"/>
<path d="M5.01302 53.456C4.80976 53.4549 4.60986 53.3879 4.43111 53.2608C4.25235 53.1337 4.10029 52.9505 3.98847 52.7275C3.87665 52.5046 3.80853 52.2487 3.79019 51.9828C3.77184 51.7169 3.80384 51.4492 3.88332 51.2034L11.265 28.5781C11.3596 28.2872 11.5171 28.0392 11.7181 27.8649C11.919 27.6906 12.1545 27.5977 12.3953 27.5977C12.6361 27.5977 12.8716 27.6906 13.0726 27.8649C13.2735 28.0392 13.4311 28.2872 13.5256 28.5781L20.9073 51.2018C20.9868 51.4478 21.0188 51.7157 21.0003 51.9818C20.9819 52.2479 20.9137 52.5039 20.8018 52.727C20.6898 52.9501 20.5377 53.1334 20.3588 53.2606C20.1799 53.3878 19.9798 53.4549 19.7764 53.456H5.01302Z" fill="#FFCC4D"/>
<path d="M12.3903 31.6016L9.92969 53.4567H14.8484L12.3903 31.6016Z" fill="#292F33"/>
<path d="M17.3411 51.6641L17.8906 53.4574H14.8474L17.3411 51.6641ZM7.43624 51.6641L6.88672 53.4574H9.92869L7.43624 51.6641Z" fill="#FFAC33"/>
<path d="M14.8473 53.4583C14.8473 53.4583 17.0834 52.7091 18.1763 51.383L12.3892 31.6032L14.8473 53.4583ZM9.92861 53.4583C9.92861 53.4583 7.69251 52.7091 6.59961 51.383L12.3879 31.6016L9.92861 53.4583Z" fill="#FFE8B6"/>
<path d="M16.726 9.34711C16.704 9.34711 16.6843 9.35678 16.6623 9.35678C16.7546 8.77093 16.7465 8.1654 16.6384 7.5842C16.5304 7.003 16.3251 6.46071 16.0376 5.99674C15.75 5.53276 15.3874 5.15876 14.9761 4.90188C14.5647 4.64501 14.115 4.51173 13.6595 4.51172C13.1418 4.51225 12.6326 4.68569 12.1798 5.01574C11.7271 5.34579 11.3457 5.82161 11.0714 6.39851C10.7234 6.21991 10.3533 6.12706 9.97973 6.12459C9.2341 6.12606 8.51461 6.48564 7.9568 7.13558C7.39898 7.78552 7.04134 8.68097 6.95125 9.65325C6.59924 9.4583 6.22192 9.35435 5.83994 9.34711C5.02666 9.34711 4.24668 9.77151 3.6716 10.5269C3.09651 11.2824 2.77344 12.3069 2.77344 13.3753C2.77344 14.4436 3.09651 15.4682 3.6716 16.2236C4.24668 16.979 5.02666 17.4034 5.83994 17.4034H16.726C17.5393 17.4034 18.3193 16.979 18.8944 16.2236C19.4695 15.4682 19.7926 14.4436 19.7926 13.3753C19.7926 12.3069 19.4695 11.2824 18.8944 10.5269C18.3193 9.77151 17.5393 9.34711 16.726 9.34711Z" fill="#E1E8ED"/>
</g>
<defs>
<clipPath id="clip0_305_31">
<rect width="44.1577" height="58.0054" fill="white" transform="translate(0.0136719 0.285156)"/>
</clipPath>
</defs>
</svg>
